<?xml version="1.0" encoding="UTF-8" standalone="no"?>
<svg
   xmlns:dc="http://purl.org/dc/elements/1.1/"
   xmlns:cc="http://creativecommons.org/ns#"
   xmlns:rdf="http://www.w3.org/1999/02/22-rdf-syntax-ns#"
   xmlns:svg="http://www.w3.org/2000/svg"
   xmlns="http://www.w3.org/2000/svg"
   xmlns:xlink="http://www.w3.org/1999/xlink"
   xmlns:sodipodi="http://sodipodi.sourceforge.net/DTD/sodipodi-0.dtd"
   xmlns:inkscape="http://www.inkscape.org/namespaces/inkscape"
   width="2451.8752"
   height="735.41687"
   version="1.1"
   id="svg3896"
   sodipodi:docname="logo-horizontal.svg"
   inkscape:version="0.92.3 (2405546, 2018-03-11)">
  <metadata
     id="metadata3900">
    <rdf:RDF>
      <cc:Work
         rdf:about="">
        <dc:format>image/svg+xml</dc:format>
        <dc:type
           rdf:resource="http://purl.org/dc/dcmitype/StillImage" />
        <dc:title />
      </cc:Work>
    </rdf:RDF>
  </metadata>
  <sodipodi:namedview
     pagecolor="#ffffff"
     bordercolor="#666666"
     borderopacity="1"
     objecttolerance="10"
     gridtolerance="10"
     guidetolerance="10"
     inkscape:pageopacity="0"
     inkscape:pageshadow="2"
     inkscape:window-width="2493"
     inkscape:window-height="1016"
     id="namedview3898"
     showgrid="false"
     inkscape:zoom="0.44851478"
     inkscape:cx="1102.0471"
     inkscape:cy="325.63874"
     inkscape:window-x="1987"
     inkscape:window-y="27"
     inkscape:window-maximized="1"
     inkscape:current-layer="layer3" />
  <defs
     id="defs3886">
    <linearGradient
       id="linearGradient4206">
      <stop
         stop-color="#0089af"
         offset="0"
         id="stop4207" />
      <stop
         stop-color="#00005c"
         offset="1"
         id="stop4208" />
    </linearGradient>
    <linearGradient
       id="linearGradient1708">
      <stop
         stop-color="#5e6700"
         offset="0"
         id="stop1709" />
      <stop
         stop-color="#005f00"
         offset="1"
         id="stop1710" />
    </linearGradient>
    <radialGradient
       xlink:href="#linearGradient1708"
       r="280.08582"
       id="radialGradient1712"
       gradientUnits="userSpaceOnUse"
       gradientTransform="scale(1.003037,0.996972)"
       fy="165.74794"
       fx="246.84595"
       cy="165.74794"
       cx="246.84595" />
    <radialGradient
       xlink:href="#linearGradient4206"
       r="250.60762"
       id="radialGradient4210"
       gradientUnits="userSpaceOnUse"
       fy="188.82213"
       fx="269.58505"
       cy="188.82213"
       cx="269.58505" />
    <radialGradient
       xlink:href="#linearGradient4206"
       r="250.60762"
       id="radialGradient4214"
       gradientUnits="userSpaceOnUse"
       fy="188.82213"
       fx="269.58505"
       cy="188.82213"
       cx="269.58505"
       gradientTransform="matrix(2.9941538,-0.00608408,0.00608408,2.9941538,-647.22937,-292.11825)" />
    <radialGradient
       xlink:href="#linearGradient1708"
       r="280.08582"
       id="radialGradient4215"
       gradientUnits="userSpaceOnUse"
       gradientTransform="matrix(3.003247,-0.00610256,0.00606566,2.9850875,-647.22937,-292.11825)"
       fy="165.74794"
       fx="246.84595"
       cy="165.74794"
       cx="246.84595" />
    <radialGradient
       xlink:href="#linearGradient4206"
       r="250.60762"
       id="radialGradient4214-3"
       gradientUnits="userSpaceOnUse"
       fy="188.82213"
       fx="269.58505"
       cy="188.82213"
       cx="269.58505"
       gradientTransform="matrix(2.9941538,-0.00608408,0.00608408,2.9941538,-648.04387,-288.06839)" />
    <radialGradient
       xlink:href="#linearGradient1708"
       r="280.08582"
       id="radialGradient4215-5"
       gradientUnits="userSpaceOnUse"
       gradientTransform="matrix(3.003247,-0.00610256,0.00606566,2.9850875,-648.76933,-289.37423)"
       fy="165.74794"
       fx="246.84595"
       cy="165.74794"
       cx="246.84595" />
  </defs>
  <g
     inkscape:groupmode="layer"
     id="layer4"
     inkscape:label="btc"
     transform="translate(435.69565,-98.137503)" />
  <g
     inkscape:groupmode="layer"
     id="layer2"
     inkscape:label="water"
     style="display:inline"
     transform="translate(435.69565,-98.137503)" />
  <g
     inkscape:groupmode="layer"
     id="layer3"
     inkscape:label="dirt"
     transform="translate(435.69565,-98.137503)">
    <g
       id="layer1"
       transform="translate(-1.5399632,2.7440208)" />
    <g
       id="g4087"
       inkscape:export-filename="/home/ngoline/Projects/ipms/images/logo_horizontal_16.png"
       inkscape:export-xdpi="2.127248"
       inkscape:export-ydpi="2.127248">
      <g
         transform="matrix(9.5477799,0,0,9.5477799,-435.67216,130.35379)"
         id="g4043"
         style="display:inline">
        <path
           style="fill:#f7931a"
           inkscape:connector-curvature="0"
           d="M 63.033,39.744 C 58.759,56.887 41.396,67.32 24.251,63.045 7.113,58.771 -3.32,41.407 0.956,24.265 5.228,7.12 22.591,-3.314 39.731,0.96 56.875,5.234 67.307,22.6 63.033,39.744 Z"
           id="path4039" />
        <path
           style="fill:#ffffff"
           inkscape:connector-curvature="0"
           d="M 46.103,27.444 C 46.74,23.186 43.498,20.897 39.065,19.37 l 1.438,-5.768 -3.511,-0.875 -1.4,5.616 c -0.923,-0.23 -1.871,-0.447 -2.813,-0.662 l 1.41,-5.653 -3.509,-0.875 -1.439,5.766 c -0.764,-0.174 -1.514,-0.346 -2.242,-0.527 l 0.004,-0.018 -4.842,-1.209 -0.934,3.75 c 0,0 2.605,0.597 2.55,0.634 1.422,0.355 1.679,1.296 1.636,2.042 l -1.638,6.571 c 0.098,0.025 0.225,0.061 0.365,0.117 -0.117,-0.029 -0.242,-0.061 -0.371,-0.092 l -2.296,9.205 c -0.174,0.432 -0.615,1.08 -1.609,0.834 0.035,0.051 -2.552,-0.637 -2.552,-0.637 l -1.743,4.019 4.569,1.139 c 0.85,0.213 1.683,0.436 2.503,0.646 l -1.453,5.834 3.507,0.875 1.439,-5.772 c 0.958,0.26 1.888,0.5 2.798,0.726 l -1.434,5.745 3.511,0.875 1.453,-5.823 c 5.987,1.133 10.489,0.676 12.384,-4.739 1.527,-4.36 -0.076,-6.875 -3.226,-8.515 2.294,-0.529 4.022,-2.038 4.483,-5.155 z m -8.022,11.249 c -1.085,4.36 -8.426,2.003 -10.806,1.412 l 1.928,-7.729 c 2.38,0.594 10.012,1.77 8.878,6.317 z m 1.086,-11.312 c -0.99,3.966 -7.1,1.951 -9.082,1.457 l 1.748,-7.01 c 1.982,0.494 8.365,1.416 7.334,5.553 z"
           id="path4041" />
      </g>
      <path
         stroke-miterlimit="4"
         id="path2335"
         d="M 736.61764,465.103 A 365.62885,365.62885 0 1 1 5.364468,466.5889 365.62885,365.62885 0 1 1 736.61764,465.103 Z"
         style="display:inline;fill:url(#radialGradient4214-3);fill-rule:evenodd;stroke:#3860a1;stroke-width:2.05848503;stroke-miterlimit:4;stroke-dashoffset:0;marker-start:none;marker-mid:none;marker-end:none"
         inkscape:connector-curvature="0" />
      <path
         inkscape:connector-curvature="0"
         style="fill:#206200;fill-opacity:1;stroke-width:2.99415994"
         d="m 338.06503,825.62719 c -22.74582,-2.52281 -49.53925,-7.7351 -50.88201,-9.89712 -0.81409,-1.31279 2.88278,-3.24253 8.2162,-4.28938 12.75611,-2.50209 12.97469,-2.50253 32.49537,-0.15585 11.09915,1.3338 17.4998,0.90158 18.84268,-1.27787 1.42952,-2.32339 5.5384,-1.90061 13.91087,1.42989 10.65587,4.23905 18.98002,4.41969 32.78158,0.7148 2.6244,-0.70297 4.12999,0.50661 3.6258,2.90896 -0.60487,2.89059 0.72858,3.43585 4.49498,1.83527 2.94678,-1.24851 9.40045,-2.06406 14.34144,-1.80765 l 8.98345,0.46683 -7.22624,-5.06647 -7.22627,-5.06639 6.84847,-2.54992 c 4.36815,-1.62575 8.36007,-1.29852 11.02932,0.90575 5.36558,4.43541 42.19624,1.18978 56.97782,-5.02321 5.85458,-2.46113 14.86276,-4.53043 20.01259,-4.59782 5.14982,-0.0704 12.73006,-2.05893 16.84224,-4.42064 8.31106,-4.77468 14.95915,-5.74929 14.96638,-2.19226 0.005,2.69773 -29.32269,15.83288 -55.34171,24.78444 -35.33347,12.15619 -100.0073,18.14126 -143.69296,13.29864 z m 79.87921,-48.21272 c -10.76704,-4.39754 -16.79799,-15.07147 -11.93881,-21.1265 2.12054,-2.64523 1.79491,-3.75834 -1.10356,-3.78544 -2.8864,-0.0271 -3.0854,-0.69431 -0.66328,-2.24428 1.8929,-1.21346 4.34432,-8.94635 5.44447,-17.18254 1.10003,-8.2362 3.74783,-21.04164 5.8826,-28.45654 2.13472,-7.41493 3.85653,-16.17633 3.82588,-19.46985 -0.0638,-6.34154 2.51853,-26.32387 5.54485,-42.91773 2.4252,-13.29603 -3.50327,-23.59287 -17.74025,-30.82183 -6.31522,-3.20583 -12.22069,-8.12223 -13.12462,-10.92898 -4.47771,-13.9377 -14.87386,-34.79487 -23.14646,-46.44632 -8.07742,-11.37346 -2.62661,-35.72108 10.6582,-47.63189 8.01877,-7.18739 9.38375,-10.32799 8.5623,-19.66818 -0.53936,-6.11296 -2.06597,-11.78679 -3.39705,-12.60745 -1.33107,-0.82073 -2.55084,-2.83934 -2.71281,-4.48574 -0.15905,-1.6465 -1.9763,-2.99015 -4.03323,-2.98597 -2.06003,0.004 -3.41597,1.65669 -3.01366,3.66796 0.9468,4.74981 -17.00989,1.46877 -22.63837,-4.13688 -2.18717,-2.17825 -5.22981,-3.95958 -6.75686,-3.95648 -1.52998,0.003 -2.78516,-1.77889 -2.78961,-3.96462 -0.013,-6.41348 -12.67723,-16.14573 -23.99079,-18.43721 -5.7662,-1.16804 -13.4417,-4.82626 -17.05937,-8.13045 -4.40659,-4.03018 -11.57921,-6.27021 -21.76045,-6.80042 -15.60122,-0.80969 -31.65942,-8.41518 -28.52592,-13.50863 0.97294,-1.57987 -2.26934,-2.85778 -7.21874,-2.84773 -11.21903,0.0228 -14.68748,-4.9884 -7.41133,-10.70708 3.04022,-2.3895 4.06394,-3.9875 2.27133,-3.54671 -2.71733,0.66424 -14.24758,-11.00153 -22.85054,-23.11641 -1.16811,-1.64444 -6.22848,-7.69738 -11.24348,-13.4509 l -9.12053,-10.46105 4.71467,9.72146 c 2.59477,5.34827 5.92119,9.71901 7.39733,9.71601 1.47316,-0.003 1.96198,1.88231 1.08042,4.18664 -0.87862,2.30427 -0.15735,5.07843 1.60539,6.1617 1.75978,1.08331 3.2062,4.11945 3.21154,6.74828 0.008,4.16188 -0.7642,4.07961 -5.98961,-0.62852 -3.29965,-2.97252 -6.00308,-7.26066 -6.00769,-9.52723 -0.005,-2.26658 -2.07002,-4.90925 -4.593,-5.87121 -2.79878,-1.06626 -3.92422,-3.84555 -2.88593,-7.13226 0.93412,-2.96313 0.29267,-6.24939 -1.42211,-7.30584 -1.71779,-1.05345 -3.12571,-4.33821 -3.13171,-7.29344 -0.006,-2.95523 -3.26373,-8.87104 -7.23965,-13.14163 -11.02768,-11.85248 -14.09673,-31.02385 -7.55746,-47.2416 6.00595,-14.89018 7.14976,-26.69252 2.58661,-26.68324 -1.72167,0.003 -2.27591,-3.11231 -1.26913,-7.15648 0.98013,-3.93932 0.32502,-8.05796 -1.45877,-9.15622 -1.79272,-1.10117 -3.23647,0.0934 -3.23123,2.6744 0.005,2.56899 -1.38881,4.67073 -3.09851,4.6742 -1.70963,0.003 -2.85356,-3.02429 -2.54075,-6.73171 1.0729,-12.78727 -0.40623,-17.21563 -5.74478,-17.20478 -6.79679,0.0138 -27.89582,10.73388 -30.97566,15.73743 -1.28322,2.08652 -3.39357,3.81245 -4.69006,3.83305 -1.29334,0.0236 -8.57241,4.36492 -16.17584,9.64714 -7.60041,5.28218 -14.614555,8.81458 -15.583632,7.84946 -0.969046,-0.96514 2.547559,-4.67008 7.816002,-8.23789 5.26845,-3.56475 10.03287,-9.12864 10.58919,-12.36646 0.55633,-3.23786 5.94055,-10.27006 11.96586,-15.63288 6.02532,-5.35988 8.41361,-8.85593 5.31081,-7.76574 -8.59606,3.01163 -4.54468,-5.66468 4.77592,-10.23475 4.22655,-2.07154 8.4836,-6.796 9.46119,-10.49881 2.34733,-8.9004 23.00189,-23.21562 33.71773,-23.36911 4.67672,-0.0664 16.58384,-1.85718 26.46034,-3.97613 9.87642,-2.11898 22.9191,-3.52881 28.98609,-3.13091 9.06458,0.59541 10.95516,-0.24682 10.60777,-4.72539 -0.34139,-4.41867 -1.4111,-4.82672 -5.65445,-2.16527 -2.87965,1.80535 -6.16618,2.35996 -7.30024,1.22747 -2.86822,-2.8536 4.52542,-11.19537 9.93585,-11.20636 2.60785,-0.005 3.76901,-1.76224 2.80881,-4.25144 -1.08049,-2.79438 2.12589,-5.90881 9.39216,-9.12434 6.06674,-2.68615 8.33604,-4.26569 5.04406,-3.50744 -7.89795,1.81555 -25.60474,8.0584 -32.12241,11.32627 -2.85952,1.4311 -7.90822,2.60908 -11.22281,2.61582 -3.31752,0.007 -6.02775,1.2009 -6.0248,2.65306 0.005,2.60192 -21.3197,11.20857 -35.90055,14.48986 -6.47944,1.45935 -6.07973,0.71599 2.98291,-5.53925 32.37541,-22.35139 61.17214,-34.67997 105.57524,-45.2019 22.76269,-5.39384 36.93766,-6.56641 81.45461,-6.73472 53.70891,-0.20195 94.01406,4.53975 85.1834,10.02205 -2.21585,1.37583 -5.15827,1.80698 -6.54027,0.95947 -1.37905,-0.85056 -16.50179,-1.92166 -33.60544,-2.38393 -26.09858,-0.7015 -30.8282,-0.14396 -29.42855,3.47611 0.91507,2.37251 3.35193,3.66407 5.41329,2.86639 5.13698,-1.98359 29.34637,10.58463 45.01387,23.37085 7.10494,5.80021 14.05211,10.54085 15.43835,10.53804 1.3833,-0.003 4.27242,2.79383 6.41717,6.2118 3.4154,5.44247 3.17183,6.40706 -1.96041,7.75887 -7.70579,2.03376 -9.78595,14.20628 -4.81718,28.19687 2.18329,6.14861 3.32065,11.83219 2.52576,12.63025 -2.73403,2.74222 -20.44841,-7.98581 -32.0081,-19.38506 -6.36632,-6.27781 -13.01303,-10.51901 -14.77141,-9.42856 -1.76433,1.09649 -2.33719,0.58864 -1.27783,-1.13518 1.05648,-1.71781 -0.15054,-4.83228 -2.68184,-6.92605 -2.5313,-2.09077 -3.91283,-5.6091 -3.06991,-7.81749 0.86064,-2.25638 -0.43631,-4.01129 -2.96044,-4.00616 -2.47012,0.005 -5.27083,-2.01036 -6.22194,-4.47861 -0.95423,-2.46828 -3.16802,-4.48481 -4.9196,-4.48125 -1.75457,0.004 -5.37847,-1.96825 -8.05416,-4.37907 -3.58763,-3.23543 -7.19649,-3.68916 -13.71383,-1.72672 -4.86554,1.46206 -7.05461,2.77193 -4.86856,2.90825 6.45619,0.40606 27.942,23.82469 27.02526,29.45858 -0.4613,2.84839 0.0493,6.59006 1.1397,8.31245 1.08739,1.72243 0.76494,5.09152 -0.72135,7.48688 -2.29796,3.6995 -4.62817,3.34491 -15.52653,-2.36677 -7.05578,-3.69541 -15.10426,-6.70915 -17.88879,-6.70053 -6.7847,0.0258 -9.93697,-5.56393 -4.35726,-7.71906 2.44737,-0.94517 5.2113,-3.72338 6.14645,-6.17751 1.27776,-3.34405 0.21347,-3.98267 -4.26286,-2.55132 -4.39558,1.40422 -5.96924,0.53908 -5.97701,-3.28443 -0.006,-2.85645 -0.89508,-4.30379 -1.97676,-3.2177 -1.08168,1.08608 -3.43873,0.75553 -5.24128,-0.73194 -2.2614,-1.86975 -3.25652,0.52761 -3.21792,7.74946 0.0378,6.83563 1.88268,11.46982 5.32988,13.39105 2.9016,1.61395 4.64301,3.95784 3.87608,5.20799 -0.77002,1.24714 2.23418,1.73505 6.67613,1.08227 5.44476,-0.80451 12.46536,1.76219 21.56509,7.88177 10.40095,6.9942 13.71171,8.06537 14.45038,4.68043 1.46245,-6.69792 4.26753,-5.44907 17.04919,7.58551 6.4628,6.59203 13.06309,11.5489 14.66382,11.0097 3.37517,-1.13264 11.20467,6.14222 18.43701,17.13111 5.0608,7.69068 12.38812,10.96039 8.79586,3.92544 -1.05217,-2.05488 0.89405,-0.56175 4.32127,3.31771 3.42722,3.87947 6.21375,9.26333 6.19529,11.96408 -0.0333,4.26376 -0.41939,4.31844 -2.94834,0.42221 -2.58907,-3.98599 -2.94241,-3.98528 -3.18578,0.006 -0.18536,3.08437 -0.74781,3.31906 -1.78904,0.75218 -2.42844,-5.97741 -15.40242,-4.64862 -14.89883,1.52736 0.27022,3.31396 -2.04263,5.59422 -6.30804,6.20774 -3.70572,0.53448 -6.73199,2.403 -6.72844,4.15158 0.004,1.98213 -4.50702,2.58414 -11.97341,1.59926 -9.78164,-1.29153 -11.99001,-0.67327 -12.03569,3.37197 -0.0334,2.72473 -2.68687,8.32924 -5.89716,12.45274 -3.2134,4.12351 -5.86753,9.3477 -5.89887,11.60839 -0.0498,3.48229 -0.84928,3.48391 -5.25474,0.0107 -4.81935,-3.80477 -4.80978,-3.49942 0.1343,4.20653 5.86923,9.15319 4.86633,12.18233 -7.48439,22.61814 -8.43204,7.12528 -11.16177,19.39494 -5.13896,23.09846 4.4039,2.70978 9.25794,16.21259 7.09441,19.73211 -2.58743,4.20607 -10.47716,-3.21241 -15.09251,-14.18863 -2.84924,-6.78495 -6.50239,-9.83759 -13.40669,-11.20088 -14.71623,-2.91333 -20.71515,-2.23045 -20.70583,2.35659 0.005,2.70669 -2.08849,3.66608 -5.86316,2.68568 -6.78231,-1.75877 -24.97769,8.65299 -31.52481,18.04402 -5.74998,8.24565 -5.65511,18.11425 0.2957,30.5908 5.53878,11.60611 10.00778,13.89059 22.32069,11.40137 6.16244,-1.24315 9.54015,-4.04654 10.75192,-8.92051 0.97415,-3.90939 3.30581,-7.2137 5.18595,-7.34328 1.88004,-0.12957 5.77129,-0.6914 8.64461,-1.24814 7.80865,-1.51295 9.06969,3.15237 3.68349,13.61894 -2.64836,5.14636 -4.05148,10.11657 -3.11837,11.04583 0.93008,0.92929 0.15094,3.55376 -1.73377,5.83615 -2.83751,3.43409 -1.48608,3.92838 7.87449,2.87939 18.5357,-2.08268 22.20489,0.0447 22.05404,12.77621 -0.25276,21.48964 6.74486,30.42196 18.76823,23.95411 3.96591,-2.13092 7.57692,-2.13529 11.56345,-0.0115 7.71233,4.1073 8.06846,4.03472 14.5994,-3.00586 3.10717,-3.34481 8.20556,-6.60983 11.33017,-7.24792 3.12464,-0.64114 8.25948,-2.19055 11.40982,-3.44252 4.01487,-1.59507 5.0816,-1.22599 3.5685,1.23233 -1.1877,1.93066 -0.73238,3.50467 1.01315,3.50112 1.7426,-0.004 3.1683,-1.273 3.16514,-2.82397 -0.003,-1.54798 3.60601,-0.95049 8.02102,1.32808 4.4151,2.28156 9.3426,3.32849 10.94841,2.33117 1.60591,-0.99434 2.0562,-0.40543 0.99975,1.30941 -1.05648,1.71484 1.09788,3.92315 4.78566,4.90373 9.42773,2.50487 11.81662,2.27847 9.82499,-0.93019 -0.95232,-1.53111 -0.15435,-3.76042 1.77146,-4.95598 2.18595,-1.3578 2.70193,-0.87377 1.37095,1.2877 -1.97865,3.21676 2.19511,4.6365 12.44937,4.2354 2.05677,-0.082 3.77085,2.06131 3.80621,4.75898 0.0888,6.87143 20.52973,22.95052 32.02593,25.19673 11.589,2.26394 21.88777,10.50098 21.90202,17.51625 0.006,2.8325 1.44649,6.03037 3.20324,7.11066 2.08951,1.28624 1.34688,4.19502 -2.14775,8.41494 -2.93899,3.54805 -3.44552,4.77971 -1.12318,2.73596 3.42216,-3.01612 7.80523,-1.75245 23.24231,6.68965 10.46123,5.72155 21.46238,10.40004 24.44157,10.39398 2.98217,-0.006 7.78407,2.58911 10.67094,5.76601 2.88685,3.177 7.14233,5.0427 9.45503,4.15166 3.04265,-1.17687 4.21159,0.88071 4.2249,7.43198 0.013,6.3865 -3.90361,13.67328 -13.27087,24.69282 -7.30922,8.59916 -14.19395,19.83833 -15.30039,24.97851 -3.04612,14.17162 -16.44614,31.29853 -27.39726,35.01855 -5.34993,1.81935 -9.7205,5.19074 -9.71581,7.49621 0.005,2.30253 -3.69341,6.5797 -8.21466,9.49918 -4.52424,2.91956 -10.64834,8.32147 -13.60808,12.00138 -14.66736,18.21631 -30.66309,31.00699 -37.33049,29.84985 -5.17272,-0.89975 -6.64391,0.0704 -5.98032,3.94044 0.94539,5.50441 -5.48462,15.05087 -10.14352,15.06033 -1.55702,0.003 -10.1374,6.34129 -19.06823,14.08441 -10.78688,9.35174 -15.0365,14.81874 -12.65319,16.28703 2.52124,1.54879 1.40955,4.0572 -3.72261,8.41515 -6.85679,5.82262 -6.98726,6.46361 -2.06603,10.27416 2.88487,2.23381 5.24948,4.76805 5.25123,5.63034 0.008,3.79662 -11.30399,3.93638 -20.32688,0.2509 z M 404.84926,262.45351 c -2.16048,-0.86093 -4.74422,-0.74792 -5.73626,0.24819 -0.99506,0.99609 0.77592,1.70211 3.93147,1.56395 3.48792,-0.15081 4.19609,-0.86183 1.80479,-1.81211 z m 20.26684,-13.61976 c 0.0545,-1.18577 -1.91911,-1.37341 -4.3873,-0.41925 -2.62386,1.01137 -4.50916,0.0421 -4.54093,-2.33221 -0.0457,-3.31145 -0.54861,-3.28046 -2.71536,0.15822 -1.61467,2.5603 -1.369,7.04204 0.62494,11.39153 l 3.28423,7.17038 3.81547,-6.90934 c 2.09721,-3.80089 3.86141,-7.87648 3.91895,-9.05933 z m -95.69102,8.61404 c -10e-4,-0.59883 -3.08735,-3.10164 -6.85599,-5.56121 -6.14616,-4.00867 -7.48743,-3.95205 -13.02354,0.54745 -6.00234,4.88071 -5.81343,5.03303 6.85599,5.56121 7.16265,0.29684 13.02476,0.0484 13.02354,-0.54745 z m -7.23226,-15.39927 c -5.44246,-3.96223 -5.45502,-4.24961 -0.29712,-6.23924 2.97082,-1.14684 10.46309,-0.74887 16.64634,0.88838 9.5356,2.52563 10.97832,2.29521 9.5094,-1.51042 -1.12276,-2.90508 -0.50464,-3.73273 1.74982,-2.34499 1.9157,1.17877 5.84918,0.76061 8.7411,-0.93099 4.77598,-2.79427 4.67359,-3.0845 -1.10527,-3.1536 -4.87762,-0.0619 -6.36656,-1.94824 -6.37902,-8.0803 -0.009,-4.39838 -2.54713,-9.84258 -5.63863,-12.09396 -3.09159,-2.25128 -5.28829,-4.71102 -4.87663,-5.46336 2.06423,-3.79182 0.24255,-7.35719 -3.75764,-7.34906 -2.4702,0.005 -4.49419,-1.44903 -4.49782,-3.23355 -0.004,-1.78451 -1.69113,-2.63744 -3.74655,-1.89368 -2.05854,0.74075 -6.1318,0.12325 -9.05721,-1.37385 -4.13023,-2.11447 -7.03165,-0.6774 -12.98462,6.42791 -4.2175,5.03275 -8.75264,8.48226 -10.07775,7.66752 -1.32805,-0.81767 -3.17277,0.51548 -4.10495,2.95759 -0.93218,2.44214 -0.73417,4.13946 0.44179,3.77179 1.17599,-0.36771 5.90789,3.12887 10.51932,7.76941 5.24759,5.28009 10.17205,7.74919 13.16084,6.59342 6.1721,-2.38093 16.51754,0.85867 14.29124,4.47715 -0.94005,1.53193 -3.73103,2.7862 -6.20123,2.79122 -2.63186,0.005 -3.61084,-1.42394 -2.36339,-3.4505 1.33097,-2.16147 0.81499,-2.6455 -1.37095,-1.2877 -1.92585,1.19556 -2.72375,3.42487 -1.77146,4.95598 0.94921,1.53106 0.29909,2.78696 -1.44354,2.7905 -1.7426,0.004 -3.17351,-1.34098 -3.17686,-2.98771 -0.0107,-5.26674 -11.23165,-3.17794 -12.66657,2.36116 -1.63398,6.29406 5.35563,14.24734 8.30705,9.4507 1.32504,-2.1525 3.07668,-2.15606 5.67399,-0.009 2.06645,1.70849 4.64241,2.21823 5.72409,1.13214 1.08168,-1.08609 1.96986,-0.17766 1.97432,2.01708 0.004,2.19471 1.01504,2.98309 2.24316,1.747 1.23114,-1.23613 -0.32874,-4.11332 -3.46525,-6.39745 z m 22.13894,-16.17456 c -0.003,-1.54798 1.32494,-3.64357 2.95171,-4.65297 1.6926,-1.05137 2.19805,0.14823 1.18246,2.81513 -1.9806,5.19295 -4.12542,6.14646 -4.13417,1.83784 z m -37.61901,-7.48982 c -3.20265,-2.41278 -4.24569,-4.43172 -2.32355,-4.48652 5.68854,-0.16726 12.97744,3.3061 12.9833,6.18651 0.008,3.92533 -4.05047,3.27783 -10.65975,-1.69999 z m 100.5402,28.99778 c -7.2e-4,-0.35328 -2.55809,-2.00386 -5.68146,-3.66826 -4.04944,-2.15655 -6.5552,-1.96585 -8.72659,0.66148 -2.29086,2.77127 -0.88184,3.68162 5.68137,3.66829 4.79963,-0.01 8.7274,-0.30817 8.72668,-0.66151 z m -44.92621,-6.75032 c -0.003,-1.64682 -2.10795,-2.98988 -4.67403,-2.98467 -2.56898,0.005 -3.83268,1.35513 -2.81135,2.99988 1.02136,1.64466 3.12297,2.98782 4.67394,2.98467 1.551,-0.003 2.81479,-1.35316 2.81144,-2.99988 z m 10.47954,-0.0213 c -1.02133,-1.64475 -2.45237,-2.98919 -3.17695,-2.98772 -0.72752,0.001 -1.31763,1.35003 -1.31428,2.99684 0.003,1.64673 1.43427,2.99125 3.17686,2.98771 1.7426,-0.004 2.33573,-1.35218 1.31437,-2.99683 z m -97.34062,-14.87188 c -3.80477,-2.53135 -3.23015,-4.11943 3.72178,-10.29851 4.51899,-4.01837 8.21572,-8.97524 8.21158,-11.01426 -0.004,-2.04204 -1.9125,-1.09198 -4.24145,2.10454 -2.32895,3.1995 -5.24499,4.81027 -6.48114,3.58221 -1.23607,-1.23108 -0.67223,-2.24123 1.247,-2.24513 1.92224,-0.004 3.49013,-2.02819 3.48511,-4.49833 -0.0118,-5.81169 -5.67677,-5.81215 -7.89269,-0.002 -0.94106,2.46315 -2.9386,3.72179 -4.44059,2.79659 -1.50199,-0.92511 -1.96122,-2.93625 -1.01513,-4.47116 0.94298,-1.53496 0.36861,-2.78832 -1.27824,-2.78497 -1.64675,0.003 -3.83869,1.37613 -4.86827,3.05193 -1.0326,1.67584 -3.27417,2.18638 -4.98592,1.13295 -2.00563,-1.23252 -1.67059,-2.82909 0.94592,-4.49617 3.30431,-2.1026 3.22249,-2.56659 -0.43321,-2.51122 -5.68581,0.0864 -20.81891,8.62358 -15.52496,8.75654 2.15591,0.0525 3.16755,1.31995 2.24833,2.81594 -0.92213,1.49593 1.35758,2.07816 5.0658,1.29816 l 6.73702,-1.41796 -6.89321,4.13698 -6.89315,4.13697 8.32553,3.77367 c 6.00583,2.7215 8.63794,2.83592 9.43838,0.41201 0.80356,-2.42694 2.3247,-2.36113 5.46486,0.23142 3.50307,2.89722 3.59529,4.07377 0.46747,6.0682 -2.5268,1.61003 -0.74655,2.46574 5.10405,2.45385 6.99435,-0.0142 7.98705,-0.68093 4.48513,-3.01226 z m -11.36658,-10.67209 c -4.28811,-4.62024 -1.40055,-5.51238 4.9253,-1.52204 2.23652,1.4117 2.91398,3.2697 1.50548,4.12887 -1.41156,0.85925 -4.30332,-0.31463 -6.43078,-2.60683 z m 117.53405,-0.97237 c -1.6924,-1.7721 -7.37808,2.73968 -7.37176,5.85061 0.003,1.61388 1.88878,1.19383 4.18691,-0.93371 2.30115,-2.1305 3.73389,-4.34011 3.18485,-4.9169 z m -85.22275,4.53567 c -10e-4,-0.64674 -2.09394,-1.97486 -4.65294,-2.94881 -2.66691,-1.01856 -3.86657,-0.5131 -2.81514,1.18246 1.76338,2.84087 7.47301,4.19161 7.46808,1.76635 z m -45.61776,-30.28911 c 2.58534,-2.25687 1.1016,-3.05626 -5.36848,-2.88744 -4.91915,0.12976 -11.30018,2.84646 -14.18004,6.0381 -5.13249,5.68438 -5.10852,5.69328 1.18961,0.45569 6.68365,-5.56177 12.15418,-2.49192 8.49512,4.76745 -1.03775,2.06203 -0.0474,1.72171 2.20517,-0.75303 2.24955,-2.47481 5.69791,-5.90412 7.65862,-7.62077 z m 24.60596,4.38436 c -0.004,-1.7426 -1.35215,-2.33572 -2.99684,-1.31431 -1.64478,1.02133 -2.98918,2.45231 -2.98771,3.17687 10e-4,0.72761 1.34999,1.31771 2.99684,1.31436 1.64675,-0.003 2.99125,-1.4313 2.98771,-3.17692 z m -15.82267,-22.82531 c -2.91483,-0.75157 -6.95687,-0.69548 -8.98224,0.12903 -2.02538,0.82452 0.35921,1.44246 5.29949,1.36955 4.94023,-0.0699 6.59757,-0.74399 3.68275,-1.49858 z m 23.33268,-3.38291 c -0.92108,-0.92034 -3.33552,0.007 -5.36437,2.05591 -2.92829,2.96419 -2.58329,3.30779 1.68014,1.67332 2.94992,-1.1318 4.60827,-2.80891 3.68423,-3.72923 z m 34.3473,-3.81849 c -0.003,-1.54798 -1.12853,-2.81519 -2.49989,-2.8124 -1.37434,0.003 -2.49316,1.96621 -2.48829,4.36453 0.005,2.39829 1.13025,3.66256 2.50288,2.81239 1.36963,-0.8501 2.48845,-2.81352 2.4853,-4.36452 z m -12.02152,-5.85015 c -1.78831,-3.32285 -2.25827,-7.69937 -1.04674,-9.72891 1.38456,-2.31728 0.29802,-2.13242 -2.9303,0.50002 -4.80965,3.91716 -4.81739,4.53098 -0.091,9.73122 6.56889,7.22951 8.12241,7.03778 4.06799,-0.50233 z m -15.18232,2.01302 c -0.68989,-0.59144 -5.29466,-1.96839 -10.23726,-3.06615 -6.56321,-1.45384 -7.77527,-1.17292 -4.48914,1.03908 4.04761,2.72844 17.7348,4.61091 14.7264,2.02707 z m -26.71546,-8.12578 c 3.98541,-2.83162 3.98499,-3.03822 -0.004,-1.85634 -2.46874,0.72957 -7.18616,-0.0513 -10.48312,-1.73933 -5.3592,-2.74072 -5.55634,-2.53971 -1.87652,1.90514 4.79944,5.79297 6.29996,5.99652 12.36341,1.69053 z m 14.96239,-4.15337 c -0.006,-2.78459 -1.75018,-3.72717 -4.74801,-2.56836 -3.81457,1.4719 -3.95959,2.31957 -0.73969,4.35206 5.32446,3.36061 5.49804,3.30334 5.4877,-1.7837 z m 79.04243,-1.75351 c 11.76397,-0.0239 -0.2888,-6.56262 -13.26984,-7.20095 -7.82453,-0.38236 -14.07778,-2.54341 -16.36264,-5.65866 -5.35044,-7.28588 -7.53395,-6.21855 -7.51385,3.67414 0.0145,7.1321 1.06209,8.42642 5.81724,7.17118 3.18707,-0.84185 8.86393,0.60777 12.60905,3.22305 4.49762,3.13474 7.81638,3.73877 9.77055,1.77665 1.62844,-1.63513 5.65589,-2.97872 8.94949,-2.98541 z m -67.06905,0.13629 c -0.003,-1.64679 -1.43436,-2.99126 -3.17695,-2.98771 -1.74553,0.004 -2.33561,1.35212 -1.31428,2.99683 1.02136,1.64469 2.44925,2.98919 3.17686,2.98771 0.72761,-0.001 1.31772,-1.35008 1.31437,-2.99683 z m 81.34309,-29.15777 c -2.16046,-0.86096 -4.74422,-0.74792 -5.73626,0.24819 -0.99506,0.99609 0.77592,1.70211 3.93146,1.56392 3.48793,-0.15081 4.1961,-0.8618 1.8048,-1.81208 z m 80.69877,655.69012 c -3.20128,-3.18824 0.8749,-7.071 7.4321,-7.08433 5.15288,-0.0105 5.56166,0.73425 2.46134,4.48625 -4.01435,4.85871 -6.87223,5.60704 -9.89344,2.59808 z M 131.21091,699.31635 c -8.25343,-9.5825 -15.55012,-16.90332 -16.21058,-16.27323 -0.66342,0.63311 -4.41087,-3.17381 -8.326,-8.45954 -7.283793,-9.83002 -17.388556,-16.91168 -24.380259,-17.08616 -2.155912,-0.0555 -3.117528,1.19211 -2.138222,2.77101 1.066417,1.71649 -1.841089,1.6176 -7.21644,-0.24583 -7.020273,-2.43193 -11.075675,-7.49279 -18.466912,-23.04746 -15.23061,-32.05154 -15.41486,-32.84166 -8.469961,-36.57453 3.490345,-1.87844 5.411967,-5.12203 4.475905,-7.55134 -0.906028,-2.33965 -0.338045,-4.26007 1.254845,-4.2633 1.595914,-0.003 2.897058,-2.11079 2.891826,-4.68579 -0.0064,-3.13186 2.215809,-4.37296 6.72924,-3.75638 4.675195,0.64026 6.74757,-0.61551 6.76746,-4.10379 0.01534,-2.76658 1.017784,-6.0233 2.23091,-7.2414 1.210168,-1.21509 2.205182,-0.747 2.208821,1.04347 0.0036,1.79048 4.050528,4.13573 8.993084,5.20954 4.942592,1.07687 8.98992,3.65255 8.994137,5.72756 0.0042,2.07492 3.715206,5.62142 8.249983,7.88478 4.531803,2.26043 8.985673,4.51192 9.893933,5.00111 0.9082,0.49223 1.09102,-3.8437 0.40257,-9.63601 -1.53225,-12.89872 4.10913,-14.17672 6.90736,-1.56199 1.09392,4.93812 3.12621,8.97615 4.51547,8.97332 1.38632,-0.003 4.18415,5.04559 6.2147,11.2155 2.03064,6.17278 6.52908,14.11919 10.00047,17.66322 9.03728,9.23059 13.81051,15.40085 13.8155,17.85605 0.002,1.17674 2.13193,4.47797 4.73369,7.34103 6.31688,6.95166 7.85354,29.3928 2.53347,37.02071 -2.29284,3.28929 -4.16589,8.35025 -4.16,11.24865 0.006,3.1438 -3.05973,6.04242 -7.62056,7.19543 -7.53837,1.90766 -7.55621,1.98255 -1.48445,6.21894 6.00289,4.18556 8.39234,10.13314 3.91226,9.73506 -1.23687,-0.11126 -8.99883,-8.03904 -17.25225,-17.61863 z m 23.39435,-46.69357 c -0.98132,-2.54005 -2.42437,-3.97435 -3.20724,-3.18831 -0.78293,0.78905 -0.53319,2.8665 0.55729,4.62186 2.96191,4.7697 4.68472,3.83801 2.64995,-1.43355 z m 27.6986,58.73118 c -1.78738,-2.87978 21.14977,-15.2534 28.44328,-15.34607 3.59596,-0.0462 3.56502,-0.52523 -0.20361,-2.94878 -3.54373,-2.27735 -3.62288,-2.90303 -0.38026,-2.94854 2.97307,-0.039 3.61172,-2.54636 2.30213,-9.03203 -1.02238,-5.06411 -0.54229,-8.9814 1.10455,-8.98474 1.6049,-0.003 2.92204,1.34138 2.92539,2.98822 0.003,1.64673 2.82925,5.80596 6.28252,9.24514 l 6.27353,6.24805 -6.9993,4.96061 c -3.85091,2.7265 -7.67586,4.97095 -8.49923,4.98457 -0.82342,0.0166 -5.74259,3.06871 -10.92696,6.78303 -9.91719,7.09839 -17.49236,8.60787 -20.3221,4.05054 z m 28.72777,-72.78972 c -1.98015,-1.97213 -3.60241,-4.66358 -3.60509,-5.98101 -0.009,-4.41036 4.50415,-2.46437 8.29506,3.57617 4.10633,6.54891 1.04655,8.11808 -4.68997,2.40484 z m 470.96503,-4.10084 c 1.19313,-3.70621 3.36959,-21.56488 4.83285,-39.68253 1.57423,-19.50117 4.564,-36.36743 7.32356,-41.34036 3.92296,-7.07124 4.09812,-10.72448 1.09676,-23.12021 -1.9808,-8.18496 -2.66662,-20.07945 -1.54849,-26.78863 1.81623,-10.89044 1.40367,-12.06634 -4.23732,-12.05488 -3.56004,0.007 -6.25568,-1.91859 -6.26088,-4.47853 -0.0115,-5.65898 -5.76324,-5.59933 -13.31775,0.13785 -3.20187,2.43178 -8.19955,3.66954 -11.10878,2.75331 -2.9062,-0.91633 -7.88418,-0.26843 -11.06054,1.44171 -7.50417,4.03336 -20.41665,-5.61452 -26.3227,-19.66912 -2.30172,-5.47464 -5.85227,-9.62037 -7.89047,-9.21198 -2.64869,0.53235 -3.71676,-4.94181 -3.74569,-19.17901 -0.0223,-10.95863 1.02081,-19.26953 2.31884,-18.47273 1.29813,0.79681 2.06585,-3.04025 1.71032,-8.52487 -0.35848,-5.48758 1.91631,-14.6963 5.05445,-20.46641 3.13523,-5.77014 5.71448,-12.51226 5.73036,-14.98248 0.0159,-2.47025 1.37459,-4.30544 3.01879,-4.0782 4.12415,0.5695 20.17891,-11.19726 18.09978,-13.265 -0.92413,-0.92033 0.54849,-4.14504 3.27301,-7.1657 2.72157,-3.02069 3.90222,-5.49025 2.62072,-5.48765 -1.27854,0.003 -0.48086,-2.35543 1.77387,-5.24339 3.71211,-4.75629 3.6071,-4.86088 -1.13406,-1.1265 -2.87881,2.26345 -5.4008,3.2806 -5.60947,2.25702 -0.20869,-1.02657 -0.57913,-3.54694 -0.82581,-5.60639 -0.2497,-2.05652 -2.97098,-3.29656 -6.05084,-2.75132 -4.96251,0.87836 -5.3542,-0.31249 -3.43167,-10.47261 1.19387,-6.30515 2.04823,-14.62767 1.89674,-18.49882 -0.4206,-10.96381 2.3154,-12.78081 11.85878,-7.86881 8.21266,4.22601 8.82034,4.15891 8.80997,-0.94609 -0.006,-3.01512 -3.38884,-10.04154 -7.51714,-15.61428 -8.93517,-12.05731 -8.97143,-12.2309 -2.26623,-10.13666 4.74272,1.48148 4.78724,1.2598 0.44737,-2.33933 -5.20367,-4.313 -5.53174,-5.13576 -6.0701,-15.20401 -0.27079,-5.06861 -0.69675,-5.43899 -1.71869,-1.49359 -0.74873,2.8849 -3.12432,5.24613 -5.28305,5.25052 -5.50328,0.0112 -8.17441,-11.94209 -3.1093,-13.89862 2.23794,-0.86384 3.32544,-3.49194 2.41643,-5.84353 -1.19792,-3.10252 -0.18421,-3.71536 3.69924,-2.23518 4.19506,1.60237 4.91827,0.92718 3.35614,-3.12072 -1.25524,-3.2551 -0.82042,-4.44168 1.17613,-3.21513 1.74179,1.07436 2.41232,3.92644 1.49207,6.34457 -0.92337,2.41517 1.66173,10.3415 5.73967,17.61203 4.07783,7.27053 6.74162,15.59788 5.91509,18.50091 -0.85027,2.99889 -0.013,2.45524 1.94363,-1.26447 2.84547,-5.41028 2.27649,-8.41829 -3.2779,-17.36552 -3.69798,-5.95384 -6.14027,-11.41026 -5.42916,-12.12133 1.76003,-1.76714 19.27286,23.25842 21.79491,31.14295 1.11502,3.4919 3.00705,6.34452 4.20771,6.34208 4.58408,-0.009 36.48377,70.61513 36.50451,80.81921 0.005,2.62285 -2.17028,1.74402 -6.11012,-2.46676 -5.49728,-5.87536 -11.87752,-8.67391 -11.87047,-5.20369 0.004,2.05998 12.47471,22.60157 13.72022,22.59904 0.61084,-10e-4 0.256,-2.21022 -0.78546,-4.90585 -1.55314,-4.02699 -0.90404,-4.3547 3.61625,-1.83678 3.0305,1.68558 5.77809,5.57537 6.10768,8.63773 0.3296,3.06536 1.46272,9.61127 2.51772,14.54953 1.05497,4.93823 3.91768,22.75965 6.3652,39.60587 4.80706,33.10272 2.56735,75.8101 -5.96686,113.71259 -2.3027,10.22374 -4.18696,23.02763 -4.18488,28.45309 0.007,16.51284 -5.79583,32.86379 -12.26874,34.57158 -3.24388,0.85401 -9.20849,8.12392 -13.25825,16.15358 -7.6492,15.17498 -12.54776,19.56241 -8.77792,7.86253 z m 19.43507,-287.38067 c -2.15111,-2.14242 -3.54678,-2.31627 -3.54297,-0.4419 0.008,3.99723 3.55738,7.53212 5.55038,5.52796 0.8487,-0.85212 -0.0543,-3.1408 -2.00741,-5.08606 z m -7.88683,-0.0828 c -2.52631,-11.41162 -12.80529,-29.11021 -16.91635,-29.12881 -5.47631,-0.0218 -13.03213,12.49716 -11.06805,18.34676 0.73208,2.18432 3.92467,4.10005 7.09285,4.25829 15.56224,0.78279 19.21059,1.46703 18.88839,3.53366 -0.54082,3.46832 0.23526,6.7364 1.59757,6.73363 0.67973,-0.001 0.86189,-1.6845 0.40559,-3.74353 z M 273.27734,622.32016 c -0.005,-2.60794 1.59033,-4.21004 3.54678,-3.56425 5.55794,1.83904 6.49028,8.28362 1.20254,8.29436 -2.60791,0.005 -4.74402,-2.12221 -4.74932,-4.73011 z m 10.5009,-4.21617 c -1.03638,-1.6716 0.21239,-3.0425 2.78138,-3.04772 5.25776,-0.0107 6.03693,1.78426 1.88925,4.35869 -1.53114,0.9522 -3.63122,0.36063 -4.67063,-1.31097 z m -62.67483,-7.83413 c -2.51933,-6.52818 0.804,-9.57105 4.35146,-3.9851 3.55343,5.59184 3.63496,8.88829 0.22168,8.89522 -1.47013,0.003 -3.52864,-2.20555 -4.57314,-4.91012 z m -25.76159,-30.86245 c -0.003,-1.59585 -2.02543,-2.12171 -4.49362,-1.16752 -5.45409,2.10395 -5.95839,-2.94915 -0.72746,-7.30731 2.79179,-2.32914 4.66229,-1.26403 7.21232,4.11128 1.89143,3.98741 2.21842,7.25338 0.7273,7.25641 -1.49106,0.003 -2.7153,-1.29994 -2.71854,-2.89286 z m -58.45667,-3.73465 c -3.26435,-1.78989 -7.69769,-5.71217 -9.85657,-8.71695 -4.17671,-5.81519 -12.56972,-7.45385 -12.55955,-2.45065 0.003,1.64675 -2.68866,2.99963 -5.98223,3.00632 -3.29354,0.007 -5.99104,-1.33523 -5.99439,-2.98199 -0.003,-1.64681 -2.700823,-2.98867 -5.994393,-2.98198 -3.293539,0.007 -5.991045,-1.33523 -5.994391,-2.98199 -0.0033,-1.64681 1.353291,-2.99691 3.012053,-3.00028 5.913428,-0.012 -4.1461,-11.38435 -14.351104,-16.2262 -6.818301,-3.23479 -9.680997,-6.33095 -8.561182,-9.26446 0.997754,-2.61899 -0.06584,-4.40431 -2.622846,-4.39912 -2.595901,0.005 -3.616305,1.7919 -2.571834,4.49648 1.261194,3.267 -0.344184,4.49195 -5.895345,4.50323 -4.19481,0.009 -8.464187,-1.33021 -9.485575,-2.9749 -1.021359,-1.64474 0.916115,-2.99602 4.308521,-3.00292 3.389352,-0.007 6.329868,-1.36026 6.533118,-3.00744 0.20325,-1.64723 0.533351,-4.22887 0.736875,-5.74128 0.598773,-4.45061 4.85012,-7.57914 4.858254,-3.57596 0.0041,2.02103 1.20063,2.93188 2.65997,2.02467 1.456321,-0.90426 4.318312,0.35646 6.359289,2.80453 2.041037,2.44808 2.601997,4.45306 1.245675,4.45581 -1.353388,0.003 -0.898101,1.56179 1.013081,3.46516 2.628184,2.6206 4.532381,2.57479 7.8473,-0.18661 3.509235,-2.92639 7.268389,-2.18548 19.035574,3.74597 8.06257,4.06769 16.43036,9.51498 18.59143,12.10956 2.16107,2.59457 7.64466,4.70929 12.18083,4.70007 8.33573,-0.0169 16.56868,-6.40525 12.92936,-10.0328 -1.08609,-1.08169 -0.4831,-1.96915 1.34037,-1.97286 6.38653,-0.013 6.93164,5.95323 1.11473,12.21992 -3.93472,4.24175 -7.84516,5.7018 -11.86887,4.4345 -10.48025,-3.3052 -11.0987,4.73839 -1.05005,13.67655 9.81457,8.73494 9.22538,13.45197 -0.9781,7.85562 z m 35.63351,-8.84229 c -1.39686,-2.2488 -0.53275,-2.84038 2.47573,-1.6938 2.54099,0.971 5.97717,0.40105 7.63554,-1.26405 2.02893,-2.03713 3.67585,-1.96263 5.03365,0.22332 1.11145,1.78822 1.60277,3.3532 1.09394,3.47403 -9.4958,2.30678 -14.49053,2.07742 -16.23886,-0.7395 z M 37.706775,558.21173 c -1.432878,-2.29361 -6.267996,-6.48765 -10.744041,-9.32002 -11.461441,-7.25553 -15.763725,-15.93286 -9.16078,-18.48231 2.797349,-1.08062 4.11796,-0.99045 2.931726,0.20064 -3.023951,3.03923 6.98861,13.38763 10.714671,11.07458 1.719442,-1.06936 2.145926,-0.42349 0.979069,1.47719 -1.256365,2.04158 0.930607,4.12104 5.53494,5.26746 8.208168,2.04328 8.93871,3.49996 4.936394,9.84374 -2.184652,3.46872 -2.993128,3.4583 -5.191979,-0.0613 z m 9.70544,-0.82518 c 0.893488,-2.34328 3.69048,-5.05868 6.215605,-6.03387 3.288007,-1.27027 4.074179,-0.41854 2.766694,3.00346 -1.000676,2.62495 -1.818592,5.3363 -1.817193,6.02502 0.0014,0.6886 -1.976592,1.25555 -4.395869,1.26046 -2.571948,0.005 -3.722328,-1.75896 -2.769237,-4.25507 z m 114.945055,-1.9612 c -4.05445,-7.53712 -0.68007,-7.54397 8.98246,-0.0182 7.41931,5.77864 7.42839,5.84149 0.8654,5.9207 -3.64687,0.0433 -8.07764,-2.61243 -9.84786,-5.90245 z m -95.815642,-1.12576 c -0.0015,-0.72458 1.343025,-2.1555 2.987711,-3.17686 1.644716,-1.02133 2.993296,-0.42823 2.996837,1.31437 0.0035,1.74553 -1.340926,3.17351 -2.987711,3.17686 -1.646755,0.003 -2.995358,-0.58673 -2.996837,-1.31437 z m 10.719384,-4.28841 c -1.294721,-2.08436 -1.545353,-4.59895 -0.55926,-5.589 2.674263,-2.68518 5.604623,1.24913 4.164245,5.59362 -1.008861,3.04712 -1.712433,3.04556 -3.604985,-0.005 z M 35.616251,538.76285 c -1.125089,-1.12052 -2.217403,-8.21445 -2.427361,-15.76231 -0.322924,-11.55386 -0.67778,-12.32863 -2.255594,-4.90588 -1.032085,4.84959 -2.886947,8.56017 -4.121189,8.24233 -1.23723,-0.31484 -3.444451,-0.57087 -4.908592,-0.5679 -6.081127,0.0124 -6.458032,-20.44 -0.642751,-34.85977 5.720052,-14.17699 6.516929,-13.95109 7.744444,2.21189 0.873697,11.49289 4.348861,15.39016 12.340142,13.84397 4.69002,-0.90485 7.135136,0.0184 7.140581,2.6982 0.0046,2.24259 -3.024621,4.16801 -6.728176,4.28033 l -6.736463,0.20232 6.742346,2.69309 c 3.706798,1.48353 6.724934,4.42365 6.70524,6.53455 -0.02992,2.9553 -0.634818,2.90563 -2.620341,-0.21924 -1.420744,-2.23076 -3.335273,-2.83471 -4.251425,-1.34472 -0.919169,1.49293 -0.427697,4.66575 1.092236,7.05503 1.516879,2.3892 2.677738,6.36309 2.577932,8.83351 -0.142559,3.51841 -0.534611,3.60903 -1.813624,0.41389 -1.149607,-2.87204 -2.245888,-3.07644 -3.711186,-0.69606 -1.145977,1.86161 -3.001106,2.46428 -4.126189,1.34674 z M 333.46927,528.13016 c 1.49687,-4.52426 6.31052,-5.00113 7.73241,-0.76425 0.68987,2.05855 -0.98948,3.74471 -3.73509,3.75029 -2.7457,0.006 -4.54487,-1.33817 -3.99732,-2.98604 z M 81.688271,524.39907 c -0.138186,-3.1556 0.567839,-4.92359 1.563918,-3.93155 0.996079,0.99204 1.109119,3.5758 0.248201,5.73928 -0.950286,2.38828 -1.661342,1.68011 -1.812119,-1.80773 z M 7.8558433,507.0841 C 4.3705171,479.02982 4.3170186,477.75142 6.6106507,476.32753 c 1.1662538,-0.72394 3.0654381,7.07797 4.2180783,17.33663 1.155628,10.25567 2.843601,21.681 3.752367,25.38294 0.908802,3.70496 0.289151,6.73628 -1.372604,6.73966 -1.66475,0.003 -4.0711632,-8.41135 -5.3526487,-18.70266 z m 46.4279537,17.87065 c -2.266997,-7.57063 -2.238639,-15.71782 0.07376,-19.69577 2.222875,-3.8281 2.936195,-2.00607 3.027803,7.71281 0.06213,7.0002 -0.557973,12.72634 -1.381395,12.72801 -0.823392,0.002 -1.596535,-0.3321 -1.720135,-0.74505 z M 189.19197,499.9159 c -0.005,-2.50613 -3.3808,-6.08326 -7.50158,-7.95226 -6.52128,-2.95397 -10.38593,-8.41646 -5.96359,-8.42544 2.7607,-0.006 14.89007,7.38033 17.15088,10.44473 3.1976,4.33801 2.7999,10.47389 -0.68231,10.48097 -1.64684,0.003 -2.99832,-2.04488 -3.0034,-4.548 z M 39.444825,480.82095 c -2.182006,-4.05568 -2.218859,-5.98382 -0.116963,-5.98809 1.703673,-0.003 3.094654,-2.1052 3.089434,-4.67418 -0.0052,-2.56599 1.339605,-3.83828 2.988428,-2.82359 3.84333,2.36657 3.970871,19.45402 0.144342,19.46179 -1.589895,0.003 -4.335022,-2.68591 -6.105271,-5.97593 z m -14.945271,-9.52404 c 0.02257,-2.15585 1.341317,-5.94312 2.932151,-8.41654 2.352007,-3.6547 2.903686,-3.26957 2.953446,2.06297 0.03129,3.6079 -1.287435,7.39518 -2.932151,8.41657 -1.644686,1.02135 -2.973019,0.0929 -2.953446,-2.063 z M 6.0848618,462.1752 C 4.8384699,432.30192 15.286625,363.78913 21.426187,361.59095 c 1.54087,-0.55403 2.797351,-4.02688 2.789837,-7.72466 -0.01648,-8.11116 13.840238,-43.61417 19.200439,-49.19125 3.170099,-3.30302 4.149504,-3.14928 5.708695,0.89264 1.197982,3.10255 0.688117,4.13959 -1.404425,2.85336 -2.173517,-1.33703 -2.622817,0.0502 -1.327063,4.10165 1.313768,4.10536 0.01017,7.94949 -3.949611,11.65237 -6.290763,5.88434 -12.261137,19.14266 -12.244795,27.18496 0.0083,4.06902 0.732537,3.91186 4.393501,-0.95209 2.412785,-3.19968 4.420995,-9.52444 4.46269,-14.0547 0.0447,-4.52727 1.426481,-8.23686 3.073236,-8.2402 5.41343,-0.011 3.167597,20.51554 -3.674435,33.59901 -5.74746,10.98829 -6.850466,11.86486 -7.682619,6.09677 -0.531503,-3.70271 -2.064654,-6.73268 -3.406035,-6.72996 -5.844618,0.0119 -8.634891,36.99251 -3.052774,40.42745 4.985562,3.06787 3.688053,14.36151 -1.426982,12.41072 -6.601202,-2.51665 -9.652632,6.15466 -9.865673,28.03347 -0.284284,29.56497 -0.328429,29.94233 -3.5351382,29.94884 -1.6467548,0.003 -3.1767098,-4.37101 -3.400173,-9.72413 z m 28.0123362,-0.53302 c 0.909458,-4.81344 0.162941,-6.74918 -2.248437,-5.81905 -4.73904,1.83008 -8.914733,-22.62976 -4.599961,-26.96211 2.142446,-2.1512 3.107062,-0.43448 3.11923,5.55383 0.01077,5.30262 3.111139,11.88651 7.974956,16.94275 6.649141,6.90901 7.333104,9.03347 4.152136,12.88142 -5.692858,6.88621 -9.941257,5.57142 -8.397924,-2.59684 z M 386.02669,410.65202 c 2.7879,-2.79922 4.38677,-2.80247 7.18594,-0.0146 2.79928,2.78793 2.00449,3.58895 -3.58563,3.60031 -5.59008,0.0114 -6.38812,-0.78643 -3.60031,-3.58571 z m 18.56465,0.39047 c -0.004,-1.90431 1.90472,-2.73458 4.23896,-1.84401 2.33726,0.89048 5.0174,-0.40249 5.96159,-2.87456 1.0394,-2.72381 3.20245,-3.57556 5.48383,-2.16099 2.0716,1.28332 6.66904,1.95362 10.21615,1.4883 3.54714,-0.46531 7.33392,0.58097 8.4153,2.32138 1.09946,1.76732 -0.42751,3.25553 -3.4484,3.36347 -2.97894,0.11084 -11.14256,0.86699 -18.13821,1.68364 -8.47746,0.99033 -12.72453,0.33123 -12.72922,-1.97723 z m 41.31842,-0.51215 c 2.7879,-2.79922 4.38678,-2.80247 7.18594,-0.0146 2.79928,2.78793 2.00449,3.58895 -3.58562,3.60031 -5.59009,0.0114 -6.38813,-0.78643 -3.60032,-3.58571 z M 376.7899,394.55023 c -4.57112,-2.46988 -9.83402,-3.54308 -11.69408,-2.38954 -2.06929,1.28571 -2.55548,0.75673 -1.25432,-1.35979 1.35491,-2.20051 -0.18069,-3.4579 -4.21079,-3.44971 -3.48822,0.007 -5.6868,1.07146 -4.88174,2.36333 0.80207,1.29188 -1.13895,2.3557 -4.30973,2.36215 -7.96445,0.0162 -7.23636,-4.15614 1.41764,-8.12007 5.8093,-2.66161 10.72719,-1.93803 25.45801,3.73891 17.95217,6.91897 23.35129,11.66573 13.02999,11.45014 -2.88354,-0.06 -8.98087,-2.12854 -13.55501,-4.59542 z m 267.21885,-40.53609 c -0.004,-1.7426 1.34087,-3.17352 2.98771,-3.17687 1.64676,-0.003 2.99537,0.58973 2.99684,1.31434 10e-4,0.72755 -1.34302,2.1555 -2.98771,3.17689 -1.64478,1.02136 -2.99329,0.43126 -2.99684,-1.31436 z m 5.87576,-55.40402 c -10e-4,-0.72452 1.34293,-2.1555 2.98771,-3.17686 1.64468,-1.02139 2.99329,-0.42826 2.99683,1.31434 0.004,1.74562 -1.34095,3.17354 -2.98771,3.17689 -1.64684,0.003 -2.99536,-0.58673 -2.99683,-1.31437 z M 57.011959,285.02069 c -0.005,-2.47018 1.336581,-5.32635 2.981267,-6.34771 1.644716,-1.02138 2.994501,0.16459 2.99952,2.63473 0.005,2.47024 -1.336551,5.32635 -2.981267,6.34774 -1.644686,1.02135 -2.994501,-0.16459 -2.99952,-2.63476 z m 11.976256,-0.201 c -0.0015,-0.72452 1.343025,-2.1555 2.987711,-3.17686 1.644716,-1.02139 2.993296,-0.42826 2.996837,1.31434 0.0035,1.74562 -1.340927,3.17355 -2.987711,3.17689 -1.646755,0.003 -2.995359,-0.58673 -2.996837,-1.31437 z m 17.93146,-16.50435 c -0.0035,-1.74259 1.340956,-3.17351 2.987711,-3.17686 1.646785,-0.003 2.995365,0.58972 2.996837,1.31434 0.0015,0.72755 -1.342995,2.1555 -2.987711,3.17689 -1.644686,1.02136 -2.99329,0.43126 -2.996837,-1.31437 z M 91.2867,241.07156 c -1.015322,-1.63574 -3.438414,-2.02006 -5.379247,-0.84839 -2.012583,1.21074 -1.766672,-0.0563 0.565927,-2.94741 4.26492,-5.2754 13.89693,-6.85793 16.4744,-2.7043 0.81709,1.31577 -1.05483,3.98741 -4.161813,5.93693 -3.648233,2.28598 -6.303676,2.48899 -7.499267,0.56317 z M 487.06415,198.1185 c -2.9857,-1.72758 -7.43633,-2.36827 -9.88962,-1.42012 -2.51915,0.97223 -3.66701,0.43262 -2.63742,-1.24022 1.00273,-1.63086 0.17064,-2.96158 -1.84739,-2.95748 -6.63807,0.0135 0.12967,-3.96453 8.24504,-4.84634 9.3218,-1.013 26.00908,6.74088 23.45152,10.89902 -2.30088,3.73544 -10.4724,3.53044 -17.32213,-0.43486 z"
         id="path1086" />
    </g>
    <text
       xml:space="preserve"
       style="font-style:normal;font-variant:normal;font-weight:normal;font-stretch:normal;font-size:34.87066269px;line-height:1.25;font-family:'Tlwg Typist';-inkscape-font-specification:'Tlwg Typist';letter-spacing:0px;word-spacing:0px;fill:#000000;fill-opacity:1;stroke:none;stroke-width:0.87176651"
       x="736.02692"
       y="655.8139"
       id="text871"
       transform="scale(0.96431745,1.0370029)"><tspan
         sodipodi:role="line"
         id="tspan869"
         x="736.02692"
         y="655.8139"
         style="font-style:normal;font-variant:normal;font-weight:normal;font-stretch:normal;font-size:581.17773438px;font-family:Roboto;-inkscape-font-specification:Roboto;stroke-width:0.87176651">IPMS</tspan></text>
    <flowRoot
       xml:space="preserve"
       id="flowRoot873"
       style="font-style:normal;font-weight:normal;font-size:40px;line-height:1.25;font-family:sans-serif;letter-spacing:0px;word-spacing:0px;fill:#000000;fill-opacity:1;stroke:none"><flowRegion
         id="flowRegion875"><rect
           id="rect877"
           width="14.188966"
           height="97.746208"
           x="-283.77933"
           y="137.90375" /></flowRegion><flowPara
         id="flowPara879" /></flowRoot>  </g>
</svg>
